<?xml version="1.0" standalone="no"?>
<!DOCTYPE svg PUBLIC "-//W3C//DTD SVG 20010904//EN"
 "http://www.w3.org/TR/2001/REC-SVG-20010904/DTD/svg10.dtd">
<svg version="1.0" xmlns="http://www.w3.org/2000/svg"
 width="309.000000pt" height="309.000000pt" viewBox="0 0 309.000000 309.000000"
 preserveAspectRatio="xMidYMid meet">
<metadata>
Created by potrace 1.11, written by Peter Selinger 2001-2013
</metadata>
<g transform="translate(0.000000,309.000000) scale(0.100000,-0.100000)"
fill="#000000" stroke="none">
<path d="M1656 2844 c-29 -30 -27 -6 -28 -343 0 -177 1 -196 19 -220 40 -53
106 -53 146 0 18 25 19 44 19 277 -1 266 -3 280 -49 301 -40 18 -78 13 -107
-15z"/>
<path d="M2384 2625 c-29 -19 -301 -396 -305 -420 -5 -35 10 -73 39 -92 56
-39 99 -20 166 75 31 42 92 127 136 187 45 61 87 121 94 135 41 78 -58 166
-130 115z"/>
<path d="M453 2125 c-199 -44 -375 -216 -429 -420 -19 -73 -12 -245 13 -317
73 -208 259 -359 476 -387 29 -3 327 -5 662 -5 522 1 620 4 678 18 195 46 349
190 412 385 33 106 31 263 -7 363 -65 174 -212 308 -389 358 -68 18 -103 19
-713 19 -503 0 -654 -3 -703 -14z"/>
<path d="M2669 1974 c-106 -35 -210 -69 -229 -74 -51 -15 -71 -34 -80 -76 -11
-49 11 -90 57 -105 29 -9 58 -2 268 66 149 48 242 83 254 96 50 54 18 139 -58
154 -9 2 -105 -26 -212 -61z"/>
<path d="M2424 1422 c-66 -10 -90 -108 -39 -158 22 -23 477 -165 505 -159 64
14 92 90 53 143 -16 21 -55 38 -209 88 -231 76 -283 91 -310 86z"/>
<path d="M2105 1015 c-24 -24 -29 -40 -25 -80 2 -17 83 -143 116 -178 6 -7 26
-34 45 -62 69 -100 123 -170 138 -180 49 -31 110 -17 134 32 18 35 13 66 -15
107 -92 131 -264 363 -277 373 -28 22 -89 16 -116 -12z"/>
<path d="M1683 890 c-12 -5 -30 -21 -39 -36 -16 -23 -18 -54 -17 -274 1 -212
4 -252 18 -274 34 -52 115 -52 150 0 14 21 16 62 17 273 0 267 -2 280 -52 306
-33 17 -45 18 -77 5z"/>
</g>
</svg>
